<svg id="Camada_1" data-name="Camada 1" xmlns="http://www.w3.org/2000/svg" viewBox="0 0 468.19 468.2"><path d="M350.78,279.21a11.67,11.67,0,1,0,0-23.33,93.34,93.34,0,1,0,93.33,93.33,11.67,11.67,0,1,0-23.33,0,70,70,0,1,1-70-70Z" transform="translate(-115.9 -115.9)"/><path d="M573.38,279.92a11.67,11.67,0,0,0-22.28,7,210.81,210.81,0,1,1-138-138,11.67,11.67,0,1,0,7-22.26,234.1,234.1,0,1,0,153.31,153.3Z" transform="translate(-115.9 -115.9)"/><path d="M373,199.16a12.62,12.62,0,0,0-11.67-12.69c-3.49-.3-7-.59-10.55-.59A163.33,163.33,0,1,0,514.11,349.21a104.27,104.27,0,0,0-.77-12.62,11.75,11.75,0,1,0-23.06,4.09c.25,2.82.5,5.64.5,8.53a140,140,0,1,1-140-140c2.89,0,5.7.26,8.52.5l2.19.2A11,11,0,0,0,373,199.16Z" transform="translate(-115.9 -115.9)"/><path d="M420.78,220.88v41.84L342.53,341a11.67,11.67,0,1,0,16.5,16.5l78.25-78.25h41.83a11.67,11.67,0,0,0,8.25-3.41l70-70a11.67,11.67,0,0,0-8.25-19.92h-35v-35a11.67,11.67,0,0,0-19.91-8.25l-70,70a11.67,11.67,0,0,0-3.42,8.25Zm23.33,4.83,46.67-46.66v18.5a11.64,11.64,0,0,0,11.67,11.66H521l-46.67,46.67H444.11Z" transform="translate(-115.9 -115.9)"/></svg>