<?xml version="1.0" encoding="UTF-8"?>
<svg width="700pt" height="700pt" version="1.1" viewBox="0 0 700 700" xmlns="http://www.w3.org/2000/svg">
 <path d="m350 430.76c-52.707 0.082032-104.6-13.008-150.96-38.082s-85.719-61.336-114.5-105.49c-2.8516-4.3672-2.8516-10.008 0-14.375 38.609-59.031 95.797-103.51 162.52-126.4 66.719-22.891 139.16-22.891 205.88 0 66.719 22.895 123.91 67.371 162.52 126.4 2.8516 4.3672 2.8516 10.008 0 14.375-28.781 44.152-68.141 80.414-114.5 105.49s-98.25 38.164-150.96 38.082zm-238.62-150.76c111.36 164.97 365.93 164.93 477.25 0-111.36-164.97-365.93-164.93-477.25 0zm238.62 101.62c-26.945-0.03125-52.777-10.746-71.828-29.797-19.055-19.051-29.773-44.883-29.805-71.828 4.7734-134.5 198.51-134.46 203.27 0-0.03125 26.945-10.75 52.777-29.805 71.828-19.051 19.051-44.883 29.766-71.828 29.797zm0-177c-26.77 0.23828-51.402 14.656-64.719 37.879-13.316 23.227-13.316 51.77 0 74.992s37.949 37.641 64.719 37.879c26.77-0.23828 51.406-14.656 64.723-37.879 13.316-23.227 13.316-51.77 0-74.992s-37.953-37.641-64.723-37.879z"/>
</svg>
