<svg id="Camada_1" data-name="Camada 1" xmlns="http://www.w3.org/2000/svg" viewBox="0 0 492.8 492.81"><path d="M343.18,103.66a11.21,11.21,0,0,0-10,11.38v22.38H309.74a11.21,11.21,0,1,0,1.05,22.39H333.2V182.2h0a11.21,11.21,0,1,0,22.41,0V159.81H378a11.2,11.2,0,1,0,0-22.39h-22.4V115a11.21,11.21,0,0,0-12.43-11.37Zm-206,89.73a27.91,27.91,0,0,0-16.81,5.25,30.64,30.64,0,0,0-9.63,13c-3.88,9.46-4.58,19.8-5.25,30.08h.18a780.55,780.55,0,0,0-1.4,88.33c2,48.91,8.72,107.12,31.86,146.93,21.84,37.59,43.7,60.91,67.22,77.84,11.31,8.14,17.95,12.57,20.3,15.39s3.15,4.84,3.15,15A11.2,11.2,0,0,0,238,596.39H349.13a6.32,6.32,0,0,0,.87,0H462a11.2,11.2,0,0,0,11.21-11.19c0-10.2.79-12.23,3.15-15s9-7.25,20.3-15.39c23.52-16.93,45.38-40.25,67.22-77.84,23.14-39.81,29.87-98,31.86-146.93a777.76,777.76,0,0,0-1.4-88.33h.18c-.67-10.28-1.38-20.62-5.25-30.08a30.61,30.61,0,0,0-9.63-13,27.91,27.91,0,0,0-16.81-5.25c-25.91,0-44.26,13-49.89,29.91-3.86,11.59-4.71,28-5.43,43-.33,7.08-.25,8.13-.35,13.12-17-3-35,4.63-43.76,20.29l-50.59,90.6c-3.5,6.24-15.8,14.15-30.11,24-11.58,7.95-24.44,18-32.73,32.88-8.3-14.85-21.15-24.94-32.74-32.88-14.31-9.82-26.61-17.73-30.11-24l-50.59-90.6c-8.76-15.65-26.73-23.32-43.76-20.29-.09-5,0-6-.35-13.12-.71-15-1.56-31.44-5.42-43-5.64-16.87-24-29.91-49.9-29.91Zm133.21,11a11.21,11.21,0,0,0-10,11.38v22.38H236.91A11.21,11.21,0,0,0,238,260.56h22.41V283a11.2,11.2,0,1,0,22.4,0V260.56h22.41a11.2,11.2,0,1,0,0-22.39H282.77V215.79a11.21,11.21,0,0,0-12.42-11.38Zm156.85,0h0a11.21,11.21,0,0,0-10,11.38v22.38H393.76a11.21,11.21,0,1,0,1.05,22.39h22.41V283a11.2,11.2,0,1,0,22.4,0V260.56H462a11.2,11.2,0,1,0,0-22.39H439.62V215.79a11.21,11.21,0,0,0-12.43-11.38ZM137.14,215.79c18.9,0,26.24,7.82,28.53,14.69,1.74,5.21,3.69,22.51,4.38,36.9.63,13.26.69,22.94.7,24.67a40.84,40.84,0,0,0-4.21,46.7l.18.17L245,478.67a11.25,11.25,0,1,0,19.61-11L186.15,327.72l-.17-.18c-4.84-8.32-2.4-20.2,5.08-24.49,7.13-4.09,21.76.3,25.9,7.7l50.77,90.43c8.44,15.06,23.72,22.41,36.94,31.48s24.3,18.64,29.05,32.89c1.52,4.53,3.69,25,4.38,47.75.59,19.22.51,40.73.52,60.69H248c-1.12-7-3.09-13.3-7.18-18.19-6.16-7.36-13.57-11.5-24.33-19.24-21.05-15.15-40.48-35.38-61.09-70.84-19.13-32.9-27-89.21-28.89-136.61a755.18,755.18,0,0,1,1.4-85.88h0v-.17c.64-9.86,1.87-18.51,3.68-22.92a8.88,8.88,0,0,1,2.27-3.67c.58-.44,1.09-.7,3.33-.7Zm425.73,0c2.24,0,2.75.26,3.32.69a9,9,0,0,1,2.28,3.68c1.8,4.4,3,13.06,3.68,22.91a.54.54,0,0,0,0,.18,755.07,755.07,0,0,1,1.4,85.88c-1.94,47.39-9.76,103.7-28.88,136.61-20.61,35.46-40,55.69-61.1,70.84-10.76,7.74-18.17,11.87-24.33,19.24-4.09,4.88-6.06,11.17-7.18,18.19H361.39c0-20-.06-41.47.52-60.7.69-22.77,2.86-43.22,4.38-47.75,4.75-14.25,15.84-23.81,29-32.88s28.5-16.42,36.94-31.48l50.77-90.43c4.14-7.4,18.77-11.79,25.9-7.7,7.48,4.29,9.91,16.17,5.08,24.49h0l-.18.18L435.43,467.66a11.25,11.25,0,1,0,19.61,11l78.25-139.75.17-.17a40.83,40.83,0,0,0-4.2-46.7c0-1.73.07-11.4.7-24.66.69-14.4,2.64-31.7,4.37-36.91,2.29-6.87,9.64-14.69,28.54-14.69ZM348.78,305.16a11.21,11.21,0,0,0-10,11.37v22.39H315.35a11.21,11.21,0,1,0,1,22.39H338.8V383.7h0a11.21,11.21,0,1,0,22.41,0V361.31h22.4a11.2,11.2,0,1,0,0-22.39h-22.4V316.53a11.22,11.22,0,0,0-12.43-11.37Z" transform="translate(-103.6 -103.6)"/></svg>