<svg id="Camada_1" data-name="Camada 1" xmlns="http://www.w3.org/2000/svg" viewBox="0 0 535.2 301.52"><path d="M350,500.76A316.27,316.27,0,0,1,84.54,357.19a13.16,13.16,0,0,1,0-14.38,317.2,317.2,0,0,1,530.92,0,13.16,13.16,0,0,1,0,14.38A316.27,316.27,0,0,1,350,500.76ZM111.38,350c111.36,165,365.93,164.93,477.25,0C477.27,185,222.7,185.07,111.38,350ZM350,451.62A101.74,101.74,0,0,1,248.37,350c4.77-134.5,198.51-134.46,203.27,0A101.76,101.76,0,0,1,350,451.62Zm0-177a75.38,75.38,0,1,0,64.72,37.88A75.37,75.37,0,0,0,350,274.62Z" transform="translate(-82.4 -199.24)"/></svg>